# xmcd CD database file
#
# Track frame offsets:
#	150
#	18979
#	35565
#	56047
#	59383
#	76383
#	99016
#	117200
#	121902
#	143586
#	163424
#	178770
#
# Disc length: 2742 seconds
#
# Revision: 0
# Processed by: cddbd v1.5.1PL2 Copyright (c) Steve Scherf et al.
# Submitted via: CDex 1.70beta2
#
DISCID=9b0ab40c
DTITLE=Tama Waipara - Triumph of Time
DYEAR=1900
DGENRE=New Age
TTITLE0=All the World
TTITLE1=Love and Sleep
TTITLE2=April's Lady
TTITLE3=Reminiscence of Time I
TTITLE4=Colours of You
TTITLE5=Never Try
TTITLE6=Felise
TTITLE7=Reminiscence of Time II
TTITLE8=Korowai
TTITLE9=At a Month's End
TTITLE10=Triumph of Time
TTITLE11=Felise (Chris Brann remix)
EXTD=
EXTT0=
EXTT1=
EXTT2=
EXTT3=
EXTT4=
EXTT5=
EXTT6=
EXTT7=
EXTT8=
EXTT9=
EXTT10=
EXTT11=
PLAYORDER=
